<svg xmlns="http://www.w3.org/2000/svg" width="16" height="16" viewBox="0 0 16 16" fill="none">
<path d="M0 8C0 3.58172 3.58172 0 8 0V0C12.4183 0 16 3.58172 16 8V8C16 12.4183 12.4183 16 8 16V16C3.58172 16 0 12.4183 0 8V8Z" fill="#CFFFCA"/>
<path fill-rule="evenodd" clip-rule="evenodd" d="M11.75 8.625C11.75 9.085 11.3767 9.45833 10.9167 9.45833C11.3767 9.45833 11.75 9.83167 11.75 10.2917C11.75 10.7517 11.3767 11.125 10.9167 11.125H9.97917C10.3821 11.125 10.7083 11.4517 10.7083 11.8542C10.7083 12.2567 10.3821 12.5833 9.97917 12.5833H7.375C5.64875 12.5833 4.25 11.1842 4.25 9.45833C4.25 8.5775 4.61583 7.78292 5.2025 7.215C6.06542 6.29458 6.5425 5.0975 6.5425 3.83333C6.5425 3.37333 6.915 3 7.37583 3C7.83542 3 8.20917 3.37333 8.20917 3.83333C8.20917 4.6275 8.06125 5.39917 7.79333 6.125H10.9167C11.3767 6.125 11.75 6.49833 11.75 6.95833C11.75 7.41833 11.3767 7.79167 10.9167 7.79167C11.3767 7.79167 11.75 8.165 11.75 8.625Z" fill="#FF5B45"/>
</svg>