<svg xmlns="http://www.w3.org/2000/svg" width="16" height="16" viewBox="0 0 16 16" fill="none">
<path d="M0 8C0 3.58172 3.58172 0 8 0V0C12.4183 0 16 3.58172 16 8V8C16 12.4183 12.4183 16 8 16V16C3.58172 16 0 12.4183 0 8V8Z" fill="#FFE2EB"/>
<g clip-path="url(#clip0_525_7206)">
<path d="M12.2417 4.89583C13.2542 5.925 13.2542 7.6 12.2417 8.62917L8 12.875L3.75833 8.62917C3.25417 8.1125 3 7.4375 3 6.7625C3 6.0875 3.25417 5.4125 3.75833 4.89583C4.775 3.87083 6.425 3.87083 7.4375 4.89583L8 5.46667L8.55833 4.89583C9.06667 4.38333 9.73333 4.125 10.4 4.125C11.0667 4.125 11.7333 4.38333 12.2417 4.89583Z" fill="#FF5246"/>
<path d="M9.76615 8.86654C9.76615 8.87487 9.77031 8.8832 9.77031 8.89154C9.77031 9.85404 8.97865 10.6374 7.99948 10.6374C7.02031 10.6374 6.22865 9.8582 6.22865 8.89154C6.22865 8.8832 6.23281 8.87487 6.23281 8.86654C6.75781 9.1457 7.36198 9.30404 7.99948 9.30404C8.63698 9.30404 9.24115 9.14154 9.76615 8.86654ZM5.91615 6.4707C5.48281 6.4707 5.13281 6.8207 5.13281 7.25404C5.13281 7.68737 5.48281 8.0332 5.91615 8.0332C6.34948 8.0332 6.69531 7.6832 6.69531 7.24987C6.69531 6.81654 6.34948 6.4707 5.91615 6.4707ZM10.0828 6.4707C9.64948 6.4707 9.29948 6.8207 9.29948 7.25404C9.29948 7.68737 9.64948 8.0332 10.0828 8.0332C10.5161 8.0332 10.8661 7.6832 10.8661 7.24987C10.8661 6.81654 10.5161 6.4707 10.0828 6.4707Z" fill="#720906"/>
</g>
<defs>
<clipPath id="clip0_525_7206">
<rect width="10" height="8.75" fill="white" transform="translate(3 4.125)"/>
</clipPath>
</defs>
</svg>